<svg xmlns="http://www.w3.org/2000/svg" xmlns:xlink="http://www.w3.org/1999/xlink" viewBox="0 0 2630.15 1795.77">
  <style>
    .B{fill:#f870ff}.C{fill:#ffea00}.D{fill:#039c35}.E{fill:#4184ff}.F{fill:#9847ff}.G{fill:#ff9c00}
  </style>
  <path d="M853.18 929.06c-1.14 3.62.86 6.59 0 20.74-.46 14.35-.37 33.94 0 62.93-.54 29.39-1.13 62.28 0 106.2-.51 32.17 1.31 62.24 2.07 90.04 2.3 83.39-.24 145.19-57.38 170.59-25.4 11.29-42.23 23.04-53.03 35.58-10 11.78-16.38 24.69-16.82 40.28-3.12 13.93 2.43 29.62 4.22 46.87 2.38 15.61 6.65 32.85 6.39 50.52 1.71 14.92-2.68 34.85-9.02 48.91-5.76 14.72-18.64 31.24-37.68 45.69-24.45 18.88-53.55 30.58-81.04 35.77-27.37 4.32-54.21 7.43-73.78 7.24-18.59-1.5-33.92-2.14-32.22-1.89-.77-.95 0-26.61 0-53.21v-53.21c25.8-1.61 48.78-4.03 66.96-9.36 19.49-4.54 32.4-15.01 38.21-26.83 5.81-12.77 7.94-32.5-2.37-56.93-8.87-25.4-10.21-46.76-6.18-65.08 8.06-36.64 37.62-61.09 71.49-81.25 12.7-7.56 23.28-21.09 29.29-37.13s7.44-34.6 1.85-52.21c-5.29-19.03-18.25-33.67-40.32-46.54-20.97-13.1-53.4-19.61-97.24-20.12-34.83 0-60.87-11.39-79.32-26.79-20.35-15.61-30.71-39.23-38.05-63.88-8.16-26.07-8.27-52.06-10.36-76.25 1.07-24.76.54-50.15 3.74-63.88 2.34-13.34 4.09-25.79 4.27-26.79.76-1.27 11.71 2.38 30.1 0 19.38-.76 46.93-.49 75.25 0 28.95.99 65.27.31 97.82 0 34.45-1.48 68.72.26 97.82 0 29.64 1.48 55.17-2.17 75.25 0 19.7 2 30.18-1.38 30.1 0z" style="mix-blend-mode:multiply" class="B"/>
  <path d="M837.92 921.3c-1.14 3.62.86 6.59 0 20.74-.46 14.35-.37 33.94 0 62.93-.54 29.39-1.13 62.28 0 106.2-.51 32.17 1.31 62.24 2.07 90.04 2.3 83.39-.24 145.19-57.38 170.59-25.4 11.29-42.23 23.04-53.03 35.58-10 11.78-16.38 24.69-16.82 40.28-3.12 13.93 2.43 29.62 4.22 46.87 2.38 15.61 6.65 32.85 6.39 50.52 1.71 14.92-2.68 34.85-9.02 48.91-5.76 14.72-18.64 31.24-37.68 45.69-24.45 18.88-53.55 30.58-81.04 35.77-27.37 4.32-54.21 7.43-73.78 7.24-18.59-1.5-33.92-2.14-32.22-1.89-.77-.95 0-26.61 0-53.21v-53.21c25.8-1.61 48.78-4.03 66.96-9.36 19.49-4.54 32.4-15.01 38.21-26.83 5.82-12.77 7.94-32.5-2.37-56.93-8.87-25.4-10.21-46.76-6.18-65.08 8.06-36.64 37.62-61.09 71.49-81.25 12.7-7.56 23.28-21.09 29.29-37.13s7.44-34.6 1.85-52.21c-5.29-19.03-18.25-33.67-40.32-46.54-20.97-13.1-53.4-19.61-97.24-20.12-34.83 0-60.87-11.39-79.32-26.79-20.35-15.61-30.71-39.23-38.05-63.88-8.16-26.07-8.27-52.06-10.36-76.25 1.07-24.76.54-50.15 3.74-63.88 2.34-13.34 4.09-25.79 4.27-26.79.76-1.27 11.71 2.38 30.1 0 19.38-.76 46.93-.49 75.25 0 28.95.99 65.27.31 97.82 0 34.45-1.48 68.72.26 97.82 0 29.64 1.48 55.17-2.17 75.25 0 19.7 2 30.18-1.38 30.1 0z" class="F"/>
  <path d="M760.42 1767.82c.92-11.39-1.8-27.65 1.02-46.87-.8-17.38.44-42.12 6.97-64.78 5.51-23.9 10.93-47.69 18.9-70.89 8.88-24.71 19.9-45.75 36.81-65.19 16.43-18.98 33.15-34.74 60.69-47.68 26.3-10.99 55.17-17.63 90.55-18.35 38.05-1.27 66.6 9.4 90.32 23.41 24.23 13.79 42.92 33.15 59.52 58.15 17.14 23.15 26.45 51.53 34.72 75.5 8.21 27.4 12.41 52.54 15.95 75.46 3.68 25.97 1.98 42.16 3.18 58.03-4.03 15.32-.35 21.88-3.57 23.21-2.94-3.16-26.65.79-48.79 1.39l-48.79-1.39c-1.07-.1-5.47-14.13-2.1-38.57.05-22.09-1.28-52.33-8.14-79.75-5.78-28.08-20.33-57.11-46.58-78.1-23.08-17.84-45.42-22.82-65.08-18.21-22.08 4.36-40.13 17.49-53.31 36.56-12.22 17.59-24.09 42.76-26.14 65.65-6.14 35.97-3.47 62.52-5.01 81.93-2.39 18.73-.29 27.27.55 28.2-1.16.7-28.37 1.57-55.83 4.84-27.83 3.03-55.32 4.04-55.82-2.57z" style="mix-blend-mode:multiply" class="B"/>
  <path d="M934.65 924.48c-.1 14.25-1.9 30.18-.68 55-1.51 21.6.47 49.69-.47 73.81 1.09 25.22 1.53 47.72 1.15 64.68.74 19.13 1.07 38.09 1.07 58.77-1.35 19.66-1.48 39.73-.54 55.94 1.57 15.26 0 23.24-.54 24.91-1.56.68 8.63 1.87 23.9.09 16.2-2.98 39.69.82 63.03.22 26.48.68 55.39.83 89.18.25 34.21-.85 68.44-.33 102.34.18l102.51.03 89.69-.22 63.88-.55c36.27.96 56.06-1.03 59.44-3.87 5.88-3.68-2.82-6.48-19.57-14.91-16.13-6.23-39.44-18.99-68.89-36.19-9.63-5.01-24.75-15.04-43.83-26.73l-67.62-41.37c-26.26-14.59-53.84-31.97-82.27-49.83-29.02-19.06-59.6-35.56-87.81-52.13l-84.21-48.26c-27.55-15.91-51.13-28.16-71.48-38.21-20.79-9.41-37.17-19.93-49.63-22-9.6-6.07-18.68-5.99-18.65.39z" style="mix-blend-mode:multiply" class="D"/>
  <path d="M1152.93 1223.59c-19.83.65-32.62 9.49-48.39 22.2-12.13 12-25.25 24.33-33.12 43.77-6.7 18.5-13.09 33.02-15.02 55.71-1.16 17.22.7 38.21 5.9 58.03 6.26 25.57 22.43 44.68 40.92 60.81 20.22 13.48 44.12 25.17 64.84 30.25 24.35 5.84 48.7 4.56 72.51-.04 23.78-6.8 45.57-13.34 63.95-30.07 13.18-12.93 23.78-31.24 29.73-48.54 4.8-19.45 9.2-45.6 7.27-68.46-2.65-23.12-9.76-46.52-22.76-68.25-13.43-20.48-33.12-37.57-60.34-47.93-28-9.1-62.83-14.69-105.48-7.48Zm34.41 192.71c-18.67-5.16-28.92-20.14-39.19-38.16-5.83-17.24-5.89-37.18 7.05-54.16 13.31-11.13 25.52-20.77 39.16-21.47 16.27-.62 30.16 4.48 39.1 12.48 18.97 22.73 25.42 38.61 20.47 56.92-3.02 14.97-17.33 28.84-28.04 36.63-12.95 6.32-28.5 10.45-38.56 7.76Z" style="mix-blend-mode:multiply" class="E"/>
  <path d="M1161.4 1235.66c-19.83.65-32.62 9.49-48.39 22.2-12.13 12-25.25 24.33-33.12 43.77-6.7 18.5-13.09 33.02-15.02 55.71-1.16 17.22.7 38.21 5.9 58.03 6.26 25.57 22.43 44.68 40.92 60.81 20.22 13.48 44.12 25.17 64.83 30.25 24.35 5.84 48.7 4.56 72.51-.04 23.78-6.8 45.57-13.34 63.95-30.07 13.18-12.93 23.78-31.24 29.73-48.54 4.8-19.45 9.2-45.6 7.27-68.46-2.65-23.12-9.76-46.52-22.76-68.25-13.43-20.48-33.12-37.57-60.34-47.93-28-9.1-62.83-14.69-105.48-7.48Zm34.41 192.71c-18.67-5.16-28.92-20.15-39.19-38.16-5.83-17.24-5.89-37.18 7.05-54.16 13.31-11.13 25.52-20.77 39.16-21.47 16.27-.62 30.16 4.48 39.1 12.48 18.97 22.73 25.42 38.61 20.47 56.92-3.02 14.97-17.33 28.84-28.04 36.63-12.95 6.32-28.5 10.45-38.56 7.76Z" style="mix-blend-mode:multiply" class="B"/>
  <path d="M1877.52 1550.67s-19.04-.24-44.62 0c-27.17.73-57.31 3.88-82.86 0-26.96-2.84-43.14 2.91-44.62 0 1.08-.5-10.2.53-9.79 0-1.06 1.06-28.03-.43-54.84 0-30.07-1.81-55.64 1.92-54.84 0 .84-.54-11.12.33-31.21 0-17.44-1.23-30.58-2.2-31.21 0-1.01-.21-28.21-.45-54.84 0-27.09-1.84-54.58 1.01-54.84 0-1.43-.8-7.95-.06-9.79 0-1.94-.12-18.92 1.62-44.62 0-26.61-1.87-58.36-.63-82.86 0-27.98-1.67-45.42-.13-44.62 0 3.14-.7 1.24 5.6-.16 24.84.97 17.57-.59 43.09.18 75.59.11 33.5 1.11 59.69 6.1 76.26 5.45 17.71 13.66 23.93 27.8 23.83 11.78-1.09 19.23-15.2 25.51-35.53s11.29-45.73 17.89-65.97 14.78-35.32 27.4-35.01c10.35 1.82 16.89 15.32 21.53 35.38 9.28 40.13 14.2 100.36 49.63 102.82v.17c.39 0 .73-.07 1.11-.09.38.01.72.09 1.11.09v-.17c17.72-1.23 27.8-16.9 34.62-37.28s11.36-44.68 15.01-65.54c4.14-20.37 9.19-34.84 21.53-35.38 13.69-.96 21.76 17.27 28.07 37.08 7.29 20.82 13.34 48.77 18.52 67.95 3.61 12.91 7.72 20.74 14.81 27.67.34 2.37 5.8 5.85 9.4 3.81 3.01-.03-.72 0 2.71-.1 3.15.5.72-1.01 2.71.1 4.25.54 7.64-1.37 9.4-3.81 5.97-5.83 10.67-14.85 14.81-27.67 5.34-21.02 11.91-47.78 18.52-67.95 10.34-20.89 13.44-40.9 28.07-37.08 11.32 2.77 17.63 11.88 21.53 35.38 7.53 20.96 9.15 43.64 15.01 65.54 4.45 18.4 17.07 38.25 34.62 37.28-.92 1.35-1.69 1.02 0 .17 1.94 3.66.61.38 1.11-.09.76.56 1.93 1.97 1.11.09-.42-1.25 1.19-1.87 0-.17 16.34-2.61 30.22-14.53 34.62-37.28 8.78-21.25 10.01-47.25 15.01-65.54 3.77-21.38 8.65-35.92 21.53-35.38 13.01.18 21.75 17.21 27.4 35.01l17.89 65.97c4.56 20.16 12.55 35.36 25.51 35.53 14.39-.09 24.83-5.68 27.8-23.83 5.33-16.08 5.6-42.69 6.1-76.26-.79-32.22.23-58.94.18-75.59l-.16-24.84z" style="mix-blend-mode:multiply" class="C"/>
  <path d="M1474.23 976.19c-1.11-.99 2.12 9.54 0 26.55.99 16.64 1.93 40.73 0 68.56v93.95c-.36 32.28 1.25 69.98 0 102.71v94.84c2.02 28.24-1.55 52.83 0 70.34-1.82 18.28-1.88 28.45 0 29.21-2.38 2.97 12.77 3.27 29.79 2.52 18.25.48 44.95-2.35 74.49.71 28.73.26 63.42 1.18 96.83-.5l96.83-1.11c29.99 2.64 58.17.1 74.49-1.11 19.91 1.17 30.57-2.21 29.79-.5 1.6 1.18 1.84-14.26-.45-30.64-.71-18.12-.55-40.13-3.14-59.16 1.06-18.34-4.76-37.15-8.51-38.58-4.83-3.72-19.56-2.17-43.19-5.02-21.55-1.86-53.38 1.75-83.23.56-30.26 1.38-58.72.65-80.97 2.79-23.22 1.71-36.07.25-36.39 1.67-.07-1.57-.08-14.21-.27-36.98.38-22.41-2.29-53.63-.91-88.27-1.4-35.05-1.09-73.44-1.7-105.55.27-32.85-1.35-66.72-2.65-88.85-.73-22.84-.3-38.29-3.75-38.14-.15 1.31-15.67-.82-38.76-1.07-20.97 1.39-44.64-1.01-64.38.54-20.14.51-33.85 1.34-33.92.54z" style="mix-blend-mode:multiply" class="B"/>
  <path d="M1998.01 1260.57c-30.73-4.19-53-9.44-76.79-15.97-24.66-4.58-46.56-14.37-64.12-23.29-20.6-10.8-37.33-18.73-51.85-30.8-16.31-11.64-29.19-23.02-39.99-38.5-13.49-18.49-27.43-36.77-32.42-56.28-8.23-19.69-9.93-36.97-14.12-56.5-2.06-19.71-2.69-37.3-3.09-51.91-.28-7.06-.43-20.67-2.46-35.07-2.35-15.1-4.48-31.09-11.77-45.94-5.57-14.93-13.06-30.54-27.67-42.93-11.9-14.66-26.13-20.43-43.89-25.42-15.39-7.32-38.98-8.05-61.28-7.08-29.18 2.83-54.29-2.91-75.94-8.41-21.58-5.22-38.38-13.6-55.3-23.7-15.11-7.87-26.41-20.97-37.03-29.64-22.68-23.28-36.34-51.06-48.12-77.79-9.2-26.69-14.77-51.71-16.2-71.58-.89-17.18-3.41-34.84-1.21-37.74-.84 2.02 33.49.95 61.58 3.38 30.23 2.75 62.12 3.68 61.58 3.38 1 .98-1.82-2.36.02-.41-1.45 8.84 1.37 25.23 4.96 43.44 3.77 18.05 12.4 38.44 26.16 51.67 9.93 7.67 19.9 13.76 31.57 18.83 14.52 3.64 27.65 6.5 44.54 5.26 27.32.89 53.76.91 75.68 6.05 23.79 5.04 46.68 12.49 64.98 22.51 20.86 10.57 37.79 22.99 53.9 38.83 15.79 16.18 31.2 34.59 41.46 54.37 11.77 18.42 17.81 40.21 24 58.01 5.85 18.19 9.41 39.07 11.08 54.91 2.38 15.92.86 32.21 2.69 45.06.85 15.45 0 28.68 2.77 43.41 8.3 44.2 41.52 88.09 174.39 107.83l-9.06 61.01c-4.27 31.33-10.08 60.44-9.06 61.01Z" style="mix-blend-mode:multiply" class="F"/>
  <path d="M1224.12 799.39c-9.05 7.88-19.41 23.34-21.71 43.71-3.84 19.29-4.14 41.63 1.5 65.54 5.49 23.43 18.64 44.75 38.54 53.77 18.39 13.65 47.81 14.72 89.4 8.39 32.1-6.89 51.63-21.52 64.1-41.53 14.13-18.36 13.37-42.6 9.23-65.42-2.56-23.65-18.88-43.75-33.59-61.8-15.6-19.13-40.52-29.1-64.37-30.66-24.74-2.65-53.62 5.84-83.1 28.01Z" style="mix-blend-mode:multiply" class="C"/>
  <path d="M1155.29 806.84c0-52.78 5.32-100.74 18.27-141.23 6.48-20.25 15.14-40.67 25.45-54.8 11.96-15.59 24.35-29.91 38.64-41.61 16.74-12.08 32.67-19.62 53.58-26.42 19.73-6.76 44.04-10.27 70.25-9.25l49.96-2.24c20.78-1.16 48.65-1.55 69.32-2.84 20.03-1.15 41.33-2.38 48.48 2.37 2.45-1.94.39-18.01.83-39.15-1.82-19.7.5-41.21-.56-59.9.29-16.39 1.13-29.79-.51-31-1.44-.89-9.57-.09-27.09 0-16.12 1.78-41.36-1.63-69.95 0-30.19-.64-62.97-.27-95.85 0-35.01-1.43-73.11-1.45-104.78 0-34.44-.27-66.44-.39-96.74 0-27.49-.29-53.63 1.53-71.73 0-17.83 1.84-30.17-.8-29.75 0-1.14-.91-1.34 8.53-2.28 27.59-.53 16.59-.36 40.69-.89 71.14l.13 97.27 1.78 203.26c.34 29.04-.17 52.21.89 71.14l.38 27.59c-.33-.67 19.01 1.16 44.43 2.27 25.42 1.12 57.24 2.2 82.86 2.04l-3.79-47.75c-.86-19.58-1.31-39.29-1.31-48.47z" style="mix-blend-mode:multiply" class="G"/>
  <path d="M2538.48 1270.07c-.05-2.44-4.36-15.52-11.36-36.81-6.76-22.09-19.02-48.11-27.74-80.17l-33.26-93.92c-12.86-28.41-20.06-60.11-27.92-78.07-6.08-20.87-12.63-34.11-11.72-32.6-.34.8-24.23 8.02-48.46 16.63-23.63 11.16-48.19 17.58-51.81 18.73.89-1.68 4.78 17.07 10.01 34.3 7.16 19.75 14.4 50.23 27.75 79.36 10.41 32.49 22.79 63.43 34.02 94.15 11.43 31.28 19.29 58.12 28.82 78.69 6.72 17.98 11.07 34.25 12.16 32.95 2.07-.09 26.01-7.93 49.76-16.62 24.52-6.81 50.39-15.84 49.76-16.62z" style="mix-blend-mode:multiply" class="B"/>
  <path d="M266.52 976.08c-.81-2.44 10.16-8.67 23.03-22.37 12.93-12.64 30.18-27.51 45.49-41.86 15.82-16.12 29.44-21.34 32.56-23.48 3.62.99 4.65 19.31 3.94 39.52.48 22.94-3.7 52.12-7.67 75.13-4.04 23.52-4.19 40.67-5.6 40.63-2.28.05 16.27.34 36.41 3.16 21.99 1.19 46.81 5.35 69.34 6.38 20.02 1.74 41.36 4.55 42.45 4.96 1.97.85-8.88 8.66-26.18 16.76-15.87 8.53-38.09 19.66-58.11 28.3l-32.22 14.96c1.33-1.02 8.8 10.76 19.99 27.36 9.88 14.98 26.99 35.48 36.51 52.88 9.15 16.55 18.59 29.68 17.83 34.61-3.06 3.75-15.22-.68-36.27-5.53-18.81-7.13-41.78-13.4-63.96-21.67-19.59-7.34-33.87-10.57-34.11-12.78 1.48-.37-3.52 16.04-3.5 36.52-1.86 19.81-5.02 48.73-8.64 68.71-4.29 20.81-6.2 39.84-11 39.64-3.55 1.65-10.95-15.41-20.5-35.22-8.92-20.48-17.7-49.58-26.27-70.33-6.17-22.7-12.92-37.18-12.99-38.35-.63.72-14.5 9.21-27.5 22.43l-52.69 40.8c-18.35 13.05-31.67 20.63-33.18 19.43-2.19.25-2.08-19.27 3.1-42.32 5.38-23.48 11.89-51.37 14.68-73.87 4.87-24.11 10.72-40.24 8.78-39.32 1.1-2.79-16.05 2.29-33.32 2.41L65 1124.85c-19.24-1.37-34.24-1.13-33.46-8.78.07-4.41 14.04-15.79 27.19-26.96 14.48-12.52 33.66-22.88 50.72-32.49l27.33-15.77c2.53.9-8.65-10.99-21.77-27.74-10.64-14.09-25.24-37.92-39.34-52.7-11.22-13.67-20.43-30.7-17.92-31.86 2.97-.88 21.07 3.86 35.82 12.73l60.46 30.1c16.22 9.37 30.49 17.04 31.96 16.84 2.42.88 4.39-32.31 6.97-63.18 4.85-33.29 8.54-64.72 12.81-62.92 2.98 1.78 9.81 12.38 19.22 29.7 9.85 15.95 18.36 36.91 27.53 54.8 7.73 13.81 15.23 31.4 14.03 29.47z" style="mix-blend-mode:multiply" class="D"/>
  <path d="M661 828.96c-24.67 1.31-48.87-2.02-72.12-1.82-22.55-.45-47.84-3.77-70.88-4.39-23.09.29-45.06-4.92-66.45-5.35-9.26-.68-15.79-.13-23.18-1.93-8.37-1.32-14.67-1.55-21.74-1.73.13.92.61-15.23 2.82-36.88 2.39-20.86 1.4-46.79 5.24-68.49 2.13-21.15 4.14-37.56 2.82-36.88l22.24 1.77c7.16-1.06 17.06 2.14 23.71 1.97 18.32-.57 36.17 3.21 57.96 4.7 21.75-.04 39.18 2.19 61.63 4.05 19.86.21 40.97.82 62.25 2.18 20.69 1.36 39.84-.15 59.81-.89 51.24-2.53 81.11-9.47 98.2-15.79s21.38-12.05 21.45-12.17c1.03-5.42 3.24-18.98-.78-23.69-1.03-1.2-5.27-5.5-16.78-10.42-11.37-6.73-31.33-10.32-60.41-14.19-31.4-3.05-72.61-5.41-128.42-3.17-31.56.85-59.84-.67-86.51-4.21-27.11-5.29-51.56-11.48-73.31-19.91-20.86-11.29-41.96-23.55-57.85-34.67-18.26-14.71-29.73-30.44-40.13-48.49-10-18.05-16.19-37.25-18.63-56.84-1.15-19.98.72-39.76 3.88-59.13 2.68-18.38 15.57-38.29 26.09-56.76 7.36-13.36 26.87-28.56 36.98-35.66 11.36-10.85 31.4-18.36 51.84-23.38 20.87-7.26 38.44-9.37 65.64-13.21 23.65-1.95 51.1-4.13 78.37-5.18 28.77-1.61 57.02 2.61 90.03.72 32.21 2.24 65.57 2.47 100.63 4.5 19.93.04 43.5 1.01 54.23 2.75 20.73.24 30.01-.25 44.93 1.22-.85.09-.87 14.89 0 36.99.29 19.44-1.28 46.82 0 68.69 1.89 20.86.39 36.29 0 36.99-13.09-.13-31.35-1.18-48.81-1.25-19.21 1.26-37.07-.04-58.02-2.92-21.88-.36-40.05-2.47-64.43-3.26-21.27 1.06-46.17-2.84-65.99-2.09-21.42-1.82-39.71.61-63.56.55-35.05 2.63-61.19 2.63-79.47 8.75-17.96 1.27-24.25 9.7-26.3 8.93-9.48 12.47-5.22 19.26-2.61 20.47 5.31 1.58 7.3 9.24 17.61 15.48 8.56 6.01 22.94 12.14 40.91 14.16 16.5 4.07 42.9 6.43 68.4 4.25 33.63-.87 62.88-3.56 93.36-.55 26.19 1.18 55.07 4.89 77.56 7.22 22.76 3.97 44.25 8.8 62.9 15.26 37.3 12.92 65.59 31.38 86.41 55.77 22.62 26.51 46.53 73.17 31.95 144.91-4.2 20.65-10.38 38.52-23.89 55.3-13.08 16-27.59 29.89-46.36 41.92-18.99 13.56-41.24 19.82-68.63 28.41-27.14 8.31-56.36 11.06-90.69 14.78-12.45.62-23.75 3.23-36.44 2.01-12.34.43-25.15-1.35-37.45.62zM486.77 409.74c-.43 1.12.61-2.01 0 0 .83 1.46-.76 1.13 0 0z" style="mix-blend-mode:multiply" class="B"/>
  <path d="M1904.41 582.35c-.22 10.97.21 31.35.28 55.3l.7 91.21 2.79 314.01h197.83c29.77-.58 56.22 3.01 75.71 0 19.81 1.37 32.23-.59 31.75 0 .97-.65 1.44-16.19 0-39.05-.62-22.82-.42-56.61 0-85.91-1.04-32.14-.79-59.56 0-85.91-1.79-21.69-.05-37.11 0-39.05.4-1.58-12.98-9.21-32.14-21.9-19.19-15.14-46.31-31.9-76.65-52.23l-91.48-62.34-76.65-52.23c-19.73-15.48-32.17-23.54-32.14-21.9z" style="mix-blend-mode:multiply" class="G"/>
  <path d="M1143 385.22c-1.15 4.27-18.82 11.14-41.79 26.01-22.89 12.74-52.16 27.11-77.78 38.23-25.42 11.45-44.03 20.28-47.48 19-3.75-2.37-3.61-20.54-6.31-47.05-1.47-25.92-1.46-60.29-1.01-86.23.57-27.01-1.9-48.88.51-46.32-3.28-3.35 22.59 4.73 45.54 17.6 25.18 12.73 58.58 31.52 84.05 46.95 23.76 13.77 46.18 29.25 44.28 31.82Z" style="mix-blend-mode:multiply" class="E"/>
  <use xlink:href="#B" style="mix-blend-mode:multiply" class="D"/>
  <use xlink:href="#B" x="9.94" y="12.87" style="mix-blend-mode:multiply" class="C"/>
  <path d="M1721.2 27.67c.77 13.13.49 34.22.54 61.81 1.06 24.37-.97 55.47.54 79.55-.55 23.34 1.33 40.13-1.07 47.3.8 5.38-18 5.09-38.7 8.96-21.51 5.46-49.65 2.01-69.34 1.43-20.39-1.87-36.8-1.88-37.09-.72 1.26.09-1.02 19.79-2.15 48.46-.63 27.22 1.78 60.12-2.15 90.92 1.13 27.45 3.33 50.45 4.3 51.69 4.87.57 32.29.87 60.88 1.81l53.62-1.81-1.24 38.17-2.07 83.97c.82 30.97-1.22 61.14-.41 83.97.2 23.68.91 39.76 3.73 38.17 2.52-.08 17.97-.33 40.4 0 21.99 1.34 45.76-.21 67.6 0 20.6.62 37.36 1.78 40.95 0 2.88.72 4.39-18.8 3.72-41.85l-3.23-77.73c-2.48-22.89-2.56-43.35-2.73-41.85-1.71-.46 12.64-.02 33.55-.26 18.94 1.15 46.07-.37 64.61-.48 21.64-.85 37.87-.06 41.61-.26 5.36-.64 5.86-15.62 4.25-36.27-.46-18.6-4-47.67-4.77-67.36-3.07-20.29-.63-36.09-3.81-36.27 2.56-2.13 16.58-1.96 38.78-3.76 21.88-3.06 50.28-5.16 74.33-6.99l46.84-3.76c3.22-1 2.65-13.12 5-31.97.98-21.3-.98-49.84.89-76.31-4.33-29.56-1.1-54.89-2.61-91.29.14-34.93-5.26-55.09-5.5-76.89-.51-18.78-6.48-32.52-7.77-33.13-2.08 1.15-16.26-.54-34.78-1.38-18.08-.57-46.12-.22-75.76-1.58-26.63-.56-63.15 1.64-95.65-1.58-32.31-1.07-65.24-.75-94.44-1.38-29.1-2.58-56.27-.93-72.13-.97-17.18-1.55-27.75-.56-28.73-.37zm204.98 1736.66c.9-3.6 1.51-15.41.29-37.45.04-23.33-1.22-51.42.72-85.24-1.33-33.37-.13-72.64.93-108.69 1.52-36.58-.75-74.63.94-107.78-.71-32.75 2.44-63.26.72-82.52.05-22.2 1.9-32.97.29-32.92.82 2.44 16.01 1.6 39.8 0 24.91 1.23 58.87-1.18 94.91 0h208.19c23.04.73 40.46-.21 39.8 0 .29 1.71-.05 21.73-.19 46.73-.69 26.25-1.02 59.37-.82 87.46-.84 26.82-.59 48.56-1.81 49.07-1.47-.58-15.95.42-41.48 2.55-23.9 1.52-51.33-2.99-73.6.14.98 24.66-1.94 44.13-1.21 65.4 2.78 19.27.68 41.3-1.23 49.11-2 11.43.56 20.5-1.14 20.84 1.25 3.61-17.65 7.12-42.56 4.55-28.41.39-52.56 1.63-73.69.03 3.01 21.82 1 44.41-1.44 64.14 1.93 18.26 1.37 33.95-1.28 45.58 1.05 11.83-3.33 20.81-1.01 18.98-1.89 5.08-18.9 6.79-38.7 6.28-20.73 1.08-46.74-.27-69.34.48-22.39-3-38.4-2.14-37.09-6.77z" style="mix-blend-mode:multiply" class="E"/>
  <path d="M2579.46 701.24c-.12-.08 1.22 12.73 0 31.42v164.33c-.61 28.65 1.33 56.59 0 74.91-.61 18.03.62 31.74 0 31.42.3 1.61-8.48-1.42-19.63.59-13.02.06-28.17 3.37-47.52 9.54-17.38 7.56-36.15 14.99-58.33 30.14-18.18 13.86-26.97 33.15-36.28 46.21-8.19 17.6-11.64 30.69-21.77 47.17-10.85 14.38-24.9 30.09-50.79 43.96-27 11.19-46.76 22.77-58.03 31.48-11.84 8.63-21.55 14.66-26.93 25.77-5.87 9.85-9.66 22.07-14.5 39.98-3.94 19.28-8.19 34.9-17.47 49.35-7.77 14.5-19.29 25.85-37.77 35.62-16.5 9.7-43.45 15.48-79.62 14.45 1.46-.78-2.02-13.47 0-39.06-1.94-24.24.11-58.61 0-93.14v-204.3c-.05-25.46-1.65-42.03 0-39.06 1.26 1.19 4.61-2.74 17.91-4.73 12.38-5.04 28.06-11.17 42.21-22.97 17.23-9.87 33-31.37 49.23-54.37 10.59-20.21 29.02-33.51 43.66-40.6 17.38-6.68 30.34-11.4 48.4-14.93 15.25-2.95 33.38-9.06 47.52-16.45 15.12-8.38 29.34-23.88 41.01-45.17 11.51-25.67 31.09-44.89 50.37-58.77 18.31-14.83 40.16-27.68 58.93-30.15 21.03-6.42 36.94-11 48.95-11.08 13.12-3.37 20.86-.34 20.44-1.57Z" style="mix-blend-mode:multiply" class="C"/>
  <path d="M2371.12 420.08c1-2.21-10.55-.63-33.03-1.92-20.85.02-46-4.2-78.83-3.84-30.06-1.43-63.18-1.64-94.26-2.88-30.61-.48-58.74-.32-79.31.96-18.72-.37-32.4 2.9-33.99 7.68-2.38 4.95-.53 21.66-1 41.8-.85 21.15.75 48.9-.12 77.22.54 27.09 2.4 59.16.37 86.95l.5 71 .25 29.37 32.08.95c18.7 1.54 46.52.6 76.94 1.9 28.89 1.02 64.45 1.59 92.84 1.43 28.58.05 57.65 1.57 79.78-.48 19.68-1.5 36-.43 37.77-3.81 3-3.04 4.04-14.2 4.55-35.67-2.48-19.82-.67-46.91.57-76.45-3.58-27.84-2.24-60.03-1.71-89.25-.9-29.04-3.28-54.6-2.28-74.07-1.9-17.99-2.19-34.04-1.14-30.91zm-138.25 217.6c-36.43 9.69-60.6-1.6-73.17-15.65-13.8-15.15-18.24-37.21-17.05-57.11 1.18-19.91 7.99-37.67 16.7-44.22 25.15-18.91 49.12-22.51 69.22-16.9 20.56 3.69 36.56 19.23 46.03 38.32 10.24 17.42 14.96 39.12 6.79 56.85-6.1 20.23-21.91 34.72-48.51 38.71z" style="mix-blend-mode:multiply" class="D"/>
  <path d="M2387.25 430.86c1-2.21-10.55-.63-33.03-1.92-20.85.02-46-4.2-78.83-3.84-30.06-1.43-63.18-1.64-94.26-2.88-30.61-.48-58.74-.32-79.31.96-18.72-.37-32.4 2.9-33.99 7.68-2.38 4.95-.53 21.66-1 41.8-.85 21.15.75 48.9-.12 77.22.54 27.09 2.4 59.16.37 86.95a34936.594 34936.594 0 0 0 .75 100.37l32.08.95c18.7 1.54 46.52.6 76.94 1.9 28.89 1.02 64.45 1.59 92.84 1.43 28.58.05 57.65 1.57 79.78-.48 19.68-1.5 36-.43 37.77-3.81 3-3.04 4.04-14.2 4.55-35.67-2.48-19.82-.67-46.91.57-76.45-3.58-27.84-2.24-60.03-1.71-89.25-.9-29.04-3.28-54.6-2.28-74.07-1.9-17.99-2.19-34.04-1.14-30.91zM2249 648.46c-36.43 9.69-60.6-1.6-73.17-15.65-13.8-15.15-18.24-37.21-17.05-57.11 1.18-19.91 7.99-37.67 16.7-44.22 25.15-18.91 49.12-22.51 69.22-16.9 20.56 3.69 36.56 19.23 46.03 38.32 10.24 17.42 14.96 39.12 6.79 56.85-6.1 20.23-21.91 34.72-48.51 38.71z" style="mix-blend-mode:multiply" class="C"/>
  <path d="M56.88 42.23c-.6.42-23.27-4.13-25.3 0 1.83 7.53-2.32 21.09-.05 46.84 5.22 16.1 5.53 49.84.02 79.14-7.99 25.49 3.64 55.37.05 81.73 1.31 21.38-3.95 46.35.04 54.61 2.2-2.26.59 1.1-.06 0-4.43 3.1-.44 8.69-.04 22.33.87 16.79 2.64 26.3-.01 38.03-3.16-5.45.97-3.34 0 .07-1.14 22.71-.69 48.6.02 77.51l.05 77.6c1.03 23.18-.39 42.24.04 51.56.03-.49-.76-.91-.06 0-1.44 7.26.61 29.77-.05 55.34-.4 26.75-.6 59.52.03 91.42 1.01 31.35.04 62.69.06 85.59l.03 37.84s10.44.9 27.15 1.11c16.71.2 39.68-.29 64.74-3.08 26.86-3.26 52.21-7.88 77.27-16.86 50.12-17.97 91.89-51.53 91.89-113.47 0-23.3-5.34-42.71-14.41-58.87s-21.87-29.08-36.8-39.39c-13.87-11.11-33.57-17.66-49.56-23.76-18.18-4.12-35.72-11.64-52.67-12 17.96-3.85 35.33-6.8 54.32-12.36 18.19-4.61 33.07-12.57 49.38-23.32 14.68-9.96 27.12-22.3 35.89-37.55s13.86-33.42 13.86-55.06c0-.85-.05-1.67-.06-2.51l.06-2.27c1.71-22.9-6-43.16-14.41-58.87-9.97-17.65-23.59-29.7-36.8-39.39-14.58-7.35-31.27-19.49-49.56-23.76-15.61-3.94-35.76-9.75-52.67-12 17.15-3.13 38.52-6.88 54.32-12.36 15.93-5.38 35.34-14.43 49.38-23.32 18.67-11.36 29.11-22.31 35.89-37.55 10-15.41 13.95-32.15 13.86-55.06-6.11-28.91-7.25-54.9-24.53-73.8-11.63-18.52-33.66-32.06-58.48-41.63-22.36-9.36-49.72-15.8-69.8-18.51-22.3-5.46-41.17-3.73-58.48-4.46-15.06 3.54-21.89.36-24.53.53z" style="mix-blend-mode:multiply" class="E"/>
  <path d="M75.83 42.23c-.6.42-23.27-4.13-25.3 0 1.83 7.53-2.32 21.09-.05 46.84 5.22 16.1 5.53 49.84.02 79.14-7.99 25.49 3.64 55.37.05 81.73 1.3 21.38-3.95 46.35.04 54.61 2.2-2.26.59 1.1-.06 0-4.43 3.1-.44 8.69-.04 22.33.87 16.79 2.64 26.3-.01 38.03-3.16-5.45.97-3.34 0 .07-1.14 22.71-.69 48.6.02 77.51l.05 77.6c1.03 23.18-.39 42.24.04 51.56.03-.49-.76-.91-.06 0-1.45 7.26.61 29.77-.05 55.34-.4 26.75-.6 59.52.03 91.42 1.01 31.35.04 62.69.06 85.59l.03 37.84s10.44.9 27.15 1.11c16.71.2 39.68-.29 64.74-3.08 26.86-3.26 52.21-7.88 77.27-16.86 50.12-17.97 91.89-51.53 91.89-113.47 0-23.3-5.34-42.71-14.41-58.87s-21.87-29.08-36.8-39.39c-13.87-11.11-33.57-17.66-49.56-23.76-18.18-4.12-35.72-11.64-52.67-12 17.96-3.85 35.33-6.8 54.32-12.36 18.19-4.61 33.07-12.57 49.38-23.32 14.69-9.96 27.12-22.3 35.89-37.55s13.86-33.42 13.86-55.06c0-.85-.05-1.67-.06-2.51l.06-2.27c1.71-22.9-6-43.16-14.41-58.87-9.97-17.65-23.59-29.7-36.8-39.39-14.58-7.35-31.27-19.49-49.56-23.76-15.61-3.94-35.76-9.75-52.67-12 17.15-3.13 38.52-6.88 54.32-12.36 15.93-5.38 35.34-14.43 49.38-23.32 18.67-11.36 29.11-22.31 35.89-37.55 10-15.41 13.95-32.15 13.86-55.06-6.11-28.91-7.25-54.9-24.53-73.8-11.63-18.52-33.66-32.06-58.48-41.63-22.36-9.36-49.72-15.8-69.8-18.51-22.3-5.46-41.17-3.73-58.48-4.46-15.06 3.54-21.89.36-24.53.53z" style="mix-blend-mode:multiply" class="B"/>
  <path d="M1001.29 68.01c-.84-2.7-12.8-.95-28.18-1.38-14.72 1.16-39.98 1.11-69.13-1.39-29.62-1.41-59.38-1.15-96.34-1.19-35.1 3.14-73.1-.95-109.81-.79-35.77-.9-75.16.97-109.55-.2-36.08-.78-68.13.23-95.55.59-27.38.05-50.55-1.22-67.82 1.58-17.85-.67-27.21 3.67-26.36 2.78-1.28 7.13-7.3 31.46-4.69 62.33 1.34 27.57 1.75 57.97 4.69 59.04 3.22 3.27 13.04 1.71 28.21 1.47 13.24.6 39.26-.42 68.41.97 25.36-.79 58.36.6 95.25.59 35.69.64 71.79-.63 108.71.32 41.14.37 74.86 1.96 108.81.17 35.03-1.43 63.98-.64 95.54.13 27.01 4.74 54.43-2.02 68.9.21 13.31-.05 26.27.45 28.9.41 7.2 1.35 9.54-32.39 7.57-60.96 2.56-30.23-6.54-65.72-7.57-64.68zm-503.43 88.7c-23.96 7.7-38.23-4.26-44.61-20.17-2.78-16.08 1.91-33.46 16.02-38.51 24.63-9.26 37.83 6.36 45.12 19.76 5.2 16.42 1.87 33.75-16.53 38.91zm137.81 0c-23.59 8.58-42.23-5.54-44.61-20.17-8.26-14.75 2.06-33.93 16.02-38.51 22.86-5.65 38.97 5.17 45.12 19.76 4.4 13.43 2.51 34.1-16.53 38.91zm137.81 0c-27.08 5.58-39.59-3.76-44.61-20.17-4.31-16.65.45-31.87 16.02-38.51 22.01-9.46 42.53 3.29 45.12 19.76 4.85 14.84-.14 34.82-16.53 38.91zm137.81 0c-24.86 7.54-40.54-4.87-44.61-20.17-3.74-15.18.3-31.67 16.02-38.51 23.9-4.11 35.69 2.81 45.12 19.76 5.15 20.29 1.55 34.79-16.53 38.91zm902.6-28.19c-.91 15.19-9.02 25-26.62 34.46-21.17 6.46-43.9 14.69-80.22 16.83-35.79 4.51-71.42 5.22-119.46 2.35-46.05-2.05-81.36-4.1-100.49-13.51-24.58-8.14-37.11-20.48-43.57-30.31-3.69-13.82-5.25-26.11-2.67-43.32 3.82-14.86 23.54-25.67 52.58-31.21 28.63-7.28 63.98-5.33 98.22-6.28 35.25-.78 67.11 2.22 91.88 4 35.35 2.51 67.71 9.34 91.73 18.57 23.79 12.93 37.04 26.94 38.61 48.42z" style="mix-blend-mode:multiply" class="C"/>
  <path d="M375.25 1707.72c8.84-11.55 17.51-24 25.36-37.78 7.8-15.66 13.35-29.82 18.11-47.88 4.51-15.75 8.09-35.47 8.56-53.78-21.35 1.29-50.53 1.33-80.32 3.59-30.91 1.2-61.56 2.09-84.56 1.5-25.72-.23-39.22-1.03-39.43-5.61-.17-4.13.59-19.69.45-43.21-1.04-23.71-.83-55.34 1.54-83.4-.26-29.87 2.79-59.95 1.77-84.02-14.05.29-29.42.09-47.4 5.92-16.18 2.92-29.86 10.3-47.77 16.03-16.15 6.91-31.4 17.07-45.92 30.26s-27.85 29.46-38.7 48.8c-12.62 18.93-19.15 43.83-23.84 67.22-4.51 27.73-5.77 55.2-1.36 85.51 4.6 34.12 13.99 60.25 28.38 83.6 13.12 25.21 29.59 41.18 52.94 53.93 20.1 13.52 46.78 22.52 68.25 26.27 25.31 5.49 48.45 4.38 74.29.63 27.84 1.01 49.71-14.97 71.07-22.99 23.96-12.59 42.3-28.73 58.58-44.59Z" style="mix-blend-mode:multiply" class="G"/>
  <path d="M627.63 1297.45c1.07-1.14 2.33 20 3.22 48.79s1.43 65.21 1.07 94.64c-.92 27.78-.56 52.9-4.3 52.69-.87 2.12-16.69 2.29-40.49 1.79l-89.56 1.82c-33.87-1.07-69.52.82-105.27.92-31.65.54-65.11-2.14-87.63-.89-22.67-3.25-35.24.21-36.62-3.63-1.48-1.02 6.93-14.26 18.11-32.71 10.3-16.9 21.29-38.91 40.52-64.23 18.04-21.34 31.46-49.24 42.25-64.79 9.44-17.35 21.64-33.96 23.28-34.39 2.49-3.83 19.88-4.76 40.45-4.82 21.65-2.6 50.89 1.79 79.71 1.39l78.49 3.1c21.46.82 35.97 1.18 36.77.33z" style="mix-blend-mode:multiply" class="C"/>
  <path d="M2614.13 27.67c.53-1.11.5 14.89-.11 34.94.16 21.82-3.27 44.84-.95 79.07 5.07 19.9 3.34 42.65.96 64.79 4.97 24.56 5.39 52.15-3.04 61.25-2.02 11.95-8.62 31.86-19.29 34.55-13.06 7.62-18.72 6.87-31.24 4.54-11.33-3.93-20.51-10.6-25.24-22.97-4.44-16.39-10.87-32.83-11-64.93-4.1-20.7-4.33-33.09-14.5-37.57-12.78-7.2-21.53-6.91-26.51 9.09-6.95 11.25-17.51 33.56-15.22 61.58-2.68 39.14-3.9 66.52-6.84 85.4-.27 21.21-8.6 34.35-17.63 41.61-7.99 9.65-20.1 10.24-30.83 10.28-13.37 1.02-20.33-10.99-26.98-26.32-3.06-14.56-6.05-36.08-10.7-57.55-.02-22.3-1.1-46.12-3.74-60.35-.34-29.5-19.44-37.54-33.22-37.9-14.27 3.29-33.57 21.95-34.07 58.31-.2 15.16.17 46.71-4.53 72.41-3.21 27.59-5.78 52.84-11.62 76.77-5.18 23.91-15.08 38.19-25.96 42.98-9.43 3.66-20.44 4.45-31.18-1.01-10.75-5.36-17.17-14.09-22.86-34.65-7.31-18.52-9.5-44.78-8.82-78.04 1.41-24.73 1.83-53.96.42-80.05l.89-82.52c1.61-24.69.1-49.04 1.03-73.63-.49-24.31 2.34-38.12.86-53.39-.25-12.82.36-21.06.36-21.79 0-.92 16.03-1.13 46.22-2.32 28.14-3.08 63.54-2.43 101.67-1.51l101.67-.82c26.97.85 46.17.08 46.22-.25-1.51-1.59 29.1-2.05 57.89 0 30.47 1.52 56.73 1.41 57.89 0z" style="mix-blend-mode:multiply" class="F"/>
  <path d="M2168.39 1739.3c.17.21 9.82 3.61 31.17 3.7 18.14.95 46.89 1.45 77.94 1.04 28.52.61 66.86-2.69 101.32-.74 35.07-.44 71.95-3.67 101.32-1.63 34.82-1.81 59.63 1.67 77.94-1.63 20.96-3.73 31.4-1.59 31.17-.74-2.2.72 2.75-10.65 0-33.09v-190.28c-.78-37.57-1.99-74.53 0-107.55-.98-31.19 1.25-60.92 0-82.73.7-17.52-3.51-33.03 0-33.09-1.94-1.19-9.92 9.42-23.29 19.48-13.39 12.84-28.32 29.52-50.12 49.88-20.29 18.82-43.55 46.37-67.72 70.28-22.36 25.48-50.36 53.16-76.1 80.67-27.23 27.53-51.51 54.57-75.25 81.05-24.3 28.06-48.03 51.3-65.17 71.43-17.71 21.79-34.11 39.44-45.87 51.79-7.91 10.46-16.19 21.59-17.34 22.15zm342.03-75.31c0 1.02-16.73 1.72-40.51.88-22.51-.23-52.09.88-75.24.88s-39.93-.34-40.51-1.76c-1.53-1.31 9.63-12.22 23.47-27.46 13.89-17.26 33.03-36.19 52.14-56.62 38.23-40.86 77.29-81.34 80.66-81.81v43.01c-1.89 24.74-.38 54.49 0 79.87.81 23.58.15 41.45 0 43.01z" style="mix-blend-mode:multiply" class="D"/>
  <path d="M2425.07 421.73c-1.91 3.79 18.38 29.26 33.1 56.8 17.31 30.23 33.41 50.59 33.1 51.64 1.58 1.37-7.76 11.87-19.11 27.83-8.01 16.66-26.71 35.95-35.49 51.68-10.27 19.62-18.11 27.4-19.11 27.83.02 1.06 19.97 1.99 45.64.55 26.98.04 59.47 2.66 86.47.55 27.77.1 47.8-1.85 51.65-1.1 1.85-.05 2.64-15.1 3.89-34.76l-.22-74.06c.34-28.1-3.18-55.27-1.91-73.59 2.25-22.55 6.45-30.8-1.18-33.37 3.09-.52-17.25.44-45.84 0-26.24-.67-61.17 1.39-85.14 0-26.08-2.3-47.08-3.8-45.84 0z" style="mix-blend-mode:multiply" class="E"/>
  <defs>
    <path id="B" d="M1402.62 380.28c-1.87-17.91.85-36.36-.14-55.39.49-19.74-1.87-34.61-.95-54.25-2.12-17.82-3.34-35.08-2.58-53.27l-5.02-52.46c-4.59-17-5.68-35.42-8.03-50.99-3.09-16.93-8.81-29.52-19.76-44.32-11.89-13.94-26.86-24.11-44.51-30.96-21.63-4.94-46.89-11.56-82.28-10.94-34.39-1.2-60.77 9.95-79.98 31.34-17.11 18.56-29.69 41.36-38.78 68.31-7.45 26.33-10.31 50.27-12.4 70.59-1.57 18.66-1.02 34.19-.84 38.18-.43 9.42 19.35 7.37 39.49 6.08 21.3-2.48 41.6-6.36 46.58-4.34 5.51 1.06 6.88-26.95 8.71-52.99 5.44-24.32 14.99-54.35 40.7-56.89 19.62-1.37 30.13 3.05 38.02 14.79 11.97 11.15 15.65 28.68 16.02 48.47 4.43 21.13 1.35 49.16 3.28 72.68.77 26.55.03 55.3-1.22 86.97.28 32.14 1.14 56.93-1.61 77.32-1.75 19.9-1.83 35.13 1.09 37.18 1.46 3.46 27.55 2.02 53.41 2.61l50.8-2.61c2.1-.6-2.12-22.65 0-42.55-1.1-18.27-.89-41.46 0-42.55z"/>
  </defs>
</svg>