<svg xmlns="http://www.w3.org/2000/svg" xmlns:xlink="http://www.w3.org/1999/xlink" viewBox="0 0 2630 1796">
  <style>
    .B{fill:#f870ff}.C{fill:#ffea00}.D{fill:#039c35}.E{fill:#4184ff}.F{fill:#9847ff}.G{fill:#ff9c00}
  </style>
  <path d="M853 929v190l2 90c3 83 0 145-57 171-26 11-42 23-53 35a64 64 0 0 0-17 40c-3 14 2 30 4 47 3 16 7 33 7 51 1 15-3 35-9 49s-19 31-38 45c-25 19-54 31-81 36a489 489 0 0 1-106 6v-107c26-2 49-4 67-9 19-5 32-15 38-27 6-13 8-33-2-57-9-25-11-47-6-65 8-37 37-61 71-81a80 80 0 0 0 31-89c-5-20-18-34-40-47-21-13-54-20-97-20-35 0-61-12-80-27-20-16-30-39-38-64-8-26-8-52-10-76 1-25 0-50 4-64l4-27c1-1 12 2 30 0h271c29 2 55-2 75 0s30-1 30 0z" class="B" style="mix-blend-mode:multiply"/>
  <path d="M838 921v190c-1 32 1 62 2 90 2 84 0 145-57 171-26 11-43 23-53 35a64 64 0 0 0-17 41c-3 14 2 29 4 47 2 15 7 32 6 50 2 15-2 35-9 49-5 15-18 31-37 46-25 19-54 30-81 35a489 489 0 0 1-106 6v-107c25-1 48-4 67-9s32-15 38-27c6-13 8-32-3-57-8-25-10-47-6-65 8-36 38-61 72-81a80 80 0 0 0 31-89c-5-19-18-34-40-47-21-13-54-20-98-20-35 0-61-11-79-27-20-16-31-39-38-64-8-26-8-52-10-76 1-25 0-50 3-64l5-27c0-1 11 3 30 0h271c29 2 55-2 75 0s30-1 30 0z" class="F"/>
  <path d="M760 1768c1-12-1-28 1-47 0-17 1-42 7-65 6-24 11-48 19-71a197 197 0 0 1 98-113c26-11 55-17 90-18a166 166 0 0 1 150 82c17 23 27 51 35 75 8 28 12 53 16 76 4 26 2 42 3 58-4 15 0 21-4 23-2-3-26 1-48 1l-49-1c-1 0-6-14-2-39 0-22-1-52-8-79-6-29-21-58-47-79-23-17-45-22-65-18-22 5-40 18-53 37-13 17-24 43-26 65-7 36-4 63-5 82-3 19-1 28 0 29l-56 4c-28 3-55 4-56-2z" class="B" style="mix-blend-mode:multiply"/>
  <path d="M935 924c0 15-2 31-1 55-2 22 0 50 0 74l1 65a1499 1499 0 0 1 0 140h24c16-3 39 1 63 0h447c36 1 56-1 60-4 5-4-3-7-20-15-16-6-39-19-69-36l-44-27-67-41c-27-15-54-32-83-50-29-19-59-36-87-52l-85-49c-27-16-51-28-71-38-21-9-37-20-50-22-9-6-18-6-18 0z" class="D" style="mix-blend-mode:multiply"/>
  <path d="M1153 1224c-20 0-33 9-48 22-13 12-26 24-34 44-6 18-13 33-15 55-1 17 1 38 6 58 7 26 23 45 41 61a170 170 0 0 0 137 30c24-6 46-13 65-30 13-13 23-31 29-48 5-20 9-46 8-69-3-23-10-46-23-68-14-20-33-38-61-48-28-9-62-15-105-7Zm34 192c-18-5-29-20-39-38-6-17-6-37 7-54 14-11 26-21 39-21 17-1 31 4 39 12 19 23 26 39 21 57-3 15-17 29-28 37-13 6-29 10-39 7Z" class="E" style="mix-blend-mode:multiply"/>
  <path d="M1161 1236c-19 0-32 9-48 22-12 12-25 24-33 44-7 18-13 33-15 55-1 18 1 39 6 58 6 26 22 45 41 61a170 170 0 0 0 137 30c24-6 46-13 64-30 13-13 24-31 30-48 5-20 9-46 7-69-3-23-10-46-23-68-13-20-33-37-60-48-28-9-63-15-106-7Zm35 192c-19-5-29-20-39-38-6-17-6-37 7-54 13-11 25-21 39-21 16-1 30 4 39 12 19 23 25 39 20 57-3 15-17 29-28 37-13 6-28 10-38 7Z" class="B" style="mix-blend-mode:multiply"/>
  <path d="M1878 1551h-45c-27 0-57 4-83 0-27-3-43 3-45 0h-64c-30-2-56 2-55 0h-31a1333 1333 0 0 0-86 0c-27-2-55 1-55 0h-55c-26-2-58-1-82 0-28-2-46 0-45 0 3-1 1 5 0 25v75c0 34 1 60 6 76 6 18 14 24 28 24 12-1 19-15 25-35l18-66c6-20 15-36 28-35 10 1 17 15 21 35 9 40 14 100 50 103h2c18-1 28-17 35-37s11-45 15-66c4-20 9-35 21-35 14-1 22 17 28 37 8 21 14 49 19 68 3 13 8 20 15 27 0 3 5 6 9 4h5c5 1 8-1 10-4 6-5 11-14 15-27l18-68c11-21 14-41 28-37 12 2 18 12 22 35 7 21 9 44 15 66 4 18 17 38 34 37-1 1-1 1 0 0 2 4 1 0 2 0 0 1 1 2 1 0-1-1 1-2 0 0 16-3 30-15 34-37 9-22 10-48 15-66 4-21 9-36 22-35 13 0 22 17 27 35l18 66c5 20 13 35 26 35 14 0 24-5 27-24 6-16 6-42 6-76l1-75v-25z" class="C" style="mix-blend-mode:multiply"/>
  <path d="M1474 976c-1-1 2 10 0 27 1 16 2 40 0 68v292c2 28-1 53 0 70-2 18-2 29 0 29-2 3 13 4 30 3 18 0 45-2 75 1 28 0 63 1 96-1l97-1c30 3 58 0 75-1 20 1 30-2 29-1 2 2 2-14 0-30-1-18-1-40-3-59 1-19-5-38-9-39-4-4-19-2-43-5-21-2-53 2-83 1-30 1-59 0-81 2l-36 2-1-37c1-22-2-54-1-88l-1-106c0-33-2-67-3-89-1-23 0-38-4-38 0 2-15-1-38-1-21 2-45-1-65 1h-34z" class="B" style="mix-blend-mode:multiply"/>
  <path d="M1998 1261a552 552 0 0 1-141-40 254 254 0 0 1-92-69c-13-18-27-37-32-56-8-20-10-37-14-57l-3-52-3-35c-2-15-4-31-12-46-5-15-13-30-27-43a78 78 0 0 0-44-25c-16-7-39-8-61-7-30 3-55-3-76-9-22-5-39-13-56-23-15-8-26-21-37-30a254 254 0 0 1-64-149c-1-17-3-35-1-38-1 2 33 1 61 3l62 4c1 1-2-3 0-1-2 9 1 26 5 44s12 38 26 51c10 8 20 14 32 19 14 4 27 7 44 6 27 0 54 0 76 6a243 243 0 0 1 119 61c16 16 31 35 41 54 12 19 18 41 24 58 6 19 10 39 11 55 3 16 1 32 3 45 1 16 0 29 3 44 8 44 41 88 174 108l-9 61c-4 31-10 60-9 61Z" class="F" style="mix-blend-mode:multiply"/>
  <path d="M1224 799c-9 8-19 24-22 44-3 19-4 42 2 66 5 23 19 44 38 53 19 14 48 15 90 9 32-7 51-22 64-42 14-18 13-42 9-65-2-24-19-44-33-62a91 91 0 0 0-65-31c-25-2-53 6-83 28Z" class="C" style="mix-blend-mode:multiply"/>
  <path d="M1155 807c0-53 6-101 19-141a187 187 0 0 1 64-97 196 196 0 0 1 124-36l49-2c21-1 49-1 70-3 20-1 41-2 48 3 3-2 1-18 1-39-2-20 1-42 0-60 0-17 1-30-1-31h-27c-16 2-41-2-70 0h-96c-35-2-73-2-105 0h-168c-18 2-30-1-30 0-1-1-1 8-2 27l-1 72v97l2 203 1 71v28l45 2 82 2-3-48-2-48z" class="G" style="mix-blend-mode:multiply"/>
  <path d="m2538 1270-11-37c-7-22-19-48-28-80l-33-94c-13-28-20-60-28-78-6-21-12-34-12-33l-48 17c-24 11-48 18-52 19 1-2 5 17 10 34 7 20 15 50 28 80 10 32 23 63 34 94s19 58 29 78c7 18 11 35 12 33l50-16c24-7 50-16 49-17z" class="B" style="mix-blend-mode:multiply"/>
  <path d="M267 976c-1-2 10-9 23-22 12-13 30-28 45-42 16-16 29-21 33-24 3 1 4 20 4 40 0 23-4 52-8 75-4 24-4 41-6 41s17 0 37 3l69 6 42 5a809 809 0 0 1-84 45l-32 15c1-1 9 11 20 28 10 15 27 35 36 52 10 17 19 30 18 35-3 4-15-1-36-6l-64-21c-20-8-34-11-34-13 1 0-4 16-4 37-1 19-5 48-8 68-4 21-6 40-11 40-4 2-11-15-21-35-9-21-17-50-26-71-6-22-13-37-13-38-1 1-14 9-27 22l-53 41c-18 13-32 21-33 20-3 0-2-20 3-43s12-51 14-74c5-24 11-40 9-39 1-3-16 2-33 3l-62 1c-19-2-34-1-33-9 0-4 14-16 27-27 14-12 33-23 50-32l28-16-22-28c-11-14-25-38-39-53-12-13-21-30-18-31s21 3 36 12l60 30c16 10 31 17 32 17 2 1 4-32 7-63 5-33 9-65 13-63 3 2 10 13 19 30 10 16 18 37 28 55l14 29z" class="D" style="mix-blend-mode:multiply"/>
  <path d="M661 829c-25 1-49-2-72-2s-48-4-71-4-45-5-66-6c-10 0-16 0-24-2l-21-1 2-37c3-21 2-47 6-69l3-37 22 2c7-1 17 2 23 2 19 0 37 3 58 5 22 0 40 2 62 4l62 2c21 2 40 0 60-1 51-2 81-9 98-16s22-12 22-12c1-5 3-19-1-23-1-2-5-6-17-11-11-7-31-10-60-14-32-3-73-5-129-3-31 1-59-1-86-4-27-6-52-12-73-20-21-12-42-24-58-35a163 163 0 0 1-59-105c-1-20 1-40 4-59s15-39 26-57c7-14 27-29 37-36 11-11 31-18 52-23 21-7 38-10 65-13 24-2 51-5 79-6 29-1 57 3 90 1l100 5 55 2c20 1 30 0 45 2v37c0 19-2 46 0 68v37l-49-1c-19 1-37 0-58-3-22 0-40-2-65-3-21 1-46-3-66-2-21-2-39 0-63 0-35 3-61 3-80 9-18 1-24 10-26 9-10 12-5 19-3 20 6 2 8 10 18 16a230 230 0 0 0 109 18c34-1 63-3 94 0 26 1 55 5 77 7 23 4 44 9 63 15 37 13 66 32 87 56 22 27 46 73 31 145-4 21-10 38-23 55-13 16-28 30-47 42-19 14-41 20-68 29-28 8-57 11-91 14-13 1-24 4-37 2-12 1-25-1-37 1zM487 410c-1 1 0-2 0 0 1 1-1 1 0 0z" class="B" style="mix-blend-mode:multiply"/>
  <path d="m1904 582 1 56v91l3 314h198c30-1 56 3 76 0h31a2358 2358 0 0 1 0-125V793c1-2-13-9-32-22-19-15-46-32-76-52l-92-63-76-52c-20-15-33-23-33-22z" class="G" style="mix-blend-mode:multiply"/>
  <path d="M1143 385c-1 4-19 11-42 26a807 807 0 0 1-125 57c-4-2-4-20-6-47-2-26-2-60-1-86 0-27-2-49 0-46-3-3 23 5 46 17l84 47c23 14 46 30 44 32Z" class="E" style="mix-blend-mode:multiply"/>
  <use xlink:href="#B" class="D" style="mix-blend-mode:multiply"/>
  <use xlink:href="#B" x="10" y="13" class="C" style="mix-blend-mode:multiply"/>
  <path d="m1721 28 1 61v80c0 23 2 40-1 47 1 6-18 5-38 9-22 6-50 2-70 2-20-2-37-2-37-1l-2 48c-1 28 2 61-2 91 1 28 3 51 4 52l61 2 54-2-2 38-2 84v84c0 24 1 40 4 38h40c22 2 46 0 68 0 20 1 37 2 41 0 2 1 4-18 3-41l-3-78-3-42h34c19 1 46-1 64-1h42c5-1 6-16 4-36 0-19-4-48-4-68-4-20-1-36-4-36 2-2 16-2 39-4 21-3 50-5 74-7l47-3c3-1 2-14 5-32 1-22-1-50 1-77-5-29-2-55-3-91 0-35-5-55-6-77 0-19-6-32-7-33-2 1-17-1-35-1l-76-2c-26-1-63 2-95-2l-95-1c-29-3-56-1-72-1-17-2-28-1-29 0zm205 1736c1-3 2-15 0-37 1-23-1-52 1-85-1-34 0-73 1-109 2-37-1-75 1-108-1-33 3-63 1-82 0-23 2-33 0-33 1 2 16 1 40 0h343v46l-1 88-2 49c-2-1-16 0-42 3-23 1-51-3-73 0 1 24-2 44-1 65 2 19 0 41-2 49-2 12 1 21-1 21 2 4-17 7-42 5h-74c3 21 1 44-1 64 2 18 1 34-2 45 1 12-3 21-1 19-2 5-19 7-38 7h-70c-22-3-38-2-37-7z" class="E" style="mix-blend-mode:multiply"/>
  <path d="M2579 701s2 13 0 32v164c0 29 2 57 0 75v31c1 2-8-1-19 1-13 0-28 3-48 9-17 8-36 15-58 31-18 13-27 33-36 46-8 17-12 30-22 47-11 14-25 30-51 44-27 11-47 23-58 31-12 9-21 15-27 26-6 10-9 22-14 40-4 19-9 35-18 50-8 14-19 25-38 35-16 10-43 16-79 15 1-1-2-14 0-39-2-25 0-59 0-94v-204c0-25-2-42 0-39 1 1 4-3 18-5 12-5 28-11 42-23 17-10 33-31 49-54 11-20 29-34 44-41 17-6 30-11 48-15 15-3 34-9 48-16 15-8 29-24 41-45 11-26 31-45 50-59 18-15 40-28 59-30 21-7 37-11 49-11 13-4 21-1 20-2Z" class="C" style="mix-blend-mode:multiply"/>
  <path d="M2371 420c1-2-10-1-33-2-21 0-46-4-79-4-30-1-63-1-94-3l-79 1c-19 0-33 3-34 8-3 5-1 22-1 42v77c0 27 2 59 0 87v71l1 29 32 1c18 2 46 1 77 2l93 2c28 0 57 1 79-1 20-1 36 0 38-4 3-3 4-14 5-35-3-20-1-47 0-77-3-28-2-60-1-89-1-29-4-55-3-74-2-18-2-34-1-31zm-138 218c-37 9-61-2-73-16a78 78 0 0 1-17-57c1-20 8-38 16-44 25-19 49-23 70-17 20 3 36 19 46 38 10 18 15 39 6 57-6 20-22 35-48 39z" class="D" style="mix-blend-mode:multiply"/>
  <path d="M2387 431c1-2-10-1-33-2-21 0-46-4-79-4l-94-3-79 1c-19 0-33 3-34 8-3 5-1 22-1 42v77c0 27 2 59 0 87a34937 34937 0 0 0 1 100l32 1c19 2 46 1 77 2 29 1 64 2 93 1 28 1 57 2 79 0 20-1 36 0 38-4 3-3 4-14 5-35-3-20-1-47 0-77-3-28-2-60-1-89-1-29-4-55-3-74-2-18-2-34-1-31zm-138 217c-36 10-61-1-73-15a78 78 0 0 1-17-57c1-20 8-38 16-45 26-18 50-22 70-16 20 3 36 19 46 38 10 17 15 39 7 57-7 20-22 34-49 38z" class="C" style="mix-blend-mode:multiply"/>
  <path d="M57 42c-1 1-23-4-25 0 1 8-3 21 0 47 5 16 5 50 0 79-8 26 3 56 0 82 1 21-4 46 0 55 2-3 0 1 0 0-5 3-1 8 0 22 0 17 2 26 0 38-4-6 1-3 0 0-2 23-1 49 0 77v130c0-1-1-1 0 0-2 7 0 29 0 55v215l27 1c17 0 39 0 65-3s52-8 77-17c50-18 92-52 92-113a117 117 0 0 0-52-99c-13-11-33-17-49-23-18-5-36-12-53-12 18-4 36-7 55-13 18-4 33-12 49-23a108 108 0 0 0 50-93v-5c1-22-6-43-15-58-10-18-23-30-37-40-14-7-31-19-49-24l-53-12c17-3 39-6 55-12 16-5 35-14 49-23 19-12 29-23 36-38 10-15 14-32 14-55-6-29-8-55-25-74-11-18-33-32-58-41-23-10-50-16-70-19-22-5-41-4-59-4-15 3-21 0-24 0z" class="E" style="mix-blend-mode:multiply"/>
  <path d="M76 42c-1 1-23-4-25 0 1 8-3 21-1 47 6 16 6 50 1 79-8 26 3 56 0 82 1 21-4 46 0 55 2-3 0 1 0 0-5 3-1 8-1 22 1 17 3 26 0 38-3-6 1-3 0 0-1 23 0 49 1 77v130c0-1-1-1 0 0-2 7 0 29-1 55l1 91v124l27 1c16 0 39 0 64-3 27-3 53-8 78-17 50-18 92-52 92-113a117 117 0 0 0-52-99c-13-11-33-17-49-23-18-5-36-12-53-12 18-4 36-7 55-13 18-4 33-12 49-23a108 108 0 0 0 50-93v-5c1-22-6-43-15-58-10-18-23-30-37-40-14-7-31-19-49-24l-53-12c17-3 39-6 55-12 15-5 35-14 49-23 19-12 29-23 36-38 10-15 14-32 14-55-6-29-8-55-25-74-11-18-34-32-58-41-23-10-50-16-70-19-22-5-41-4-59-4-15 3-22 0-24 0z" class="B" style="mix-blend-mode:multiply"/>
  <path d="M1001 68c-1-3-13-1-28-1-15 1-40 1-69-2l-96-1c-35 3-73-1-110-1H588c-36-1-68 0-95 1-28 0-51-2-68 1-18 0-27 4-26 3-2 7-8 31-5 62 1 28 2 58 5 59 3 4 13 2 28 2 13 0 39-1 68 1h95l109 1c41 0 75 2 109 0 35-2 64-1 95 0 27 5 55-2 69 0l29 1c7 1 10-33 8-61 2-31-7-66-8-65zm-503 89c-24 7-38-5-45-20-3-17 2-34 16-39 25-9 38 6 45 20 6 16 2 34-16 39zm138 0c-24 8-43-6-45-20-8-15 2-34 16-39 23-6 39 5 45 20 5 13 3 34-16 39zm137 0c-27 5-39-4-44-20-4-17 0-32 16-39 22-9 42 3 45 20 5 15 0 35-17 39zm138 0c-25 7-40-5-44-20-4-16 0-32 16-39 24-4 35 3 45 20 5 20 1 35-17 39zm903-28c-1 15-9 25-27 34-21 6-44 15-80 17-36 4-71 5-119 2-46-2-82-4-101-13-24-8-37-21-43-31-4-13-6-26-3-43 4-15 23-26 52-31 29-7 64-6 99-6 35-1 67 2 92 4 35 2 67 9 91 18 24 13 37 27 39 49z" class="C" style="mix-blend-mode:multiply"/>
  <path d="M375 1708c9-12 18-24 26-38a237 237 0 0 0 26-102l-80 4c-31 1-62 2-85 1-25 0-39-1-39-5v-43c-1-24 0-56 2-84 0-30 3-60 2-84-14 0-30 0-48 6-16 3-30 10-47 16-17 7-32 17-46 30a203 203 0 0 0-63 116c-4 28-6 56-1 86 4 34 14 60 28 83 13 26 30 42 53 54a201 201 0 0 0 143 27c27 1 49-15 71-23 24-12 42-28 58-44Z" class="G" style="mix-blend-mode:multiply"/>
  <path d="M628 1297a2188 2188 0 0 1 4 143c-1 29-1 54-4 54-1 2-17 2-41 1l-89 2c-34-1-70 1-106 1-31 1-65-2-87-1-23-3-36 0-37-3-1-1 7-15 18-33 10-17 21-39 41-64 18-22 31-50 42-65 9-18 22-34 23-35 3-3 20-4 41-4 21-3 51 1 79 1l79 3h37z" class="C" style="mix-blend-mode:multiply"/>
  <path d="M2614 28v35c0 21-3 44-1 79 5 20 3 42 1 64 5 25 5 53-3 62-2 12-9 32-19 34-13 8-19 7-32 5-11-4-20-11-25-23-4-17-11-33-11-65-4-21-4-33-14-38-13-7-22-7-27 9-7 12-17 34-15 62-3 39-4 67-7 85 0 22-8 35-17 42-8 10-21 10-31 10-14 1-21-11-27-26l-11-58c0-22-1-46-4-60 0-29-19-37-33-38-14 3-34 22-34 58 0 16 0 47-5 73-3 27-5 53-11 77-5 24-15 38-26 43-10 3-21 4-31-1-11-6-17-14-23-35-7-19-10-45-9-78 1-25 2-54 0-80l1-83c2-24 0-49 1-73 0-25 3-38 1-54l1-21 46-3c28-3 63-2 101-1l102-1h46c-1-2 29-2 58 0h58z" class="F" style="mix-blend-mode:multiply"/>
  <path d="M2168 1739a1302 1302 0 0 0 109 5c29 1 67-3 102-1 35 0 72-3 101-1 35-2 60 1 78-2 21-4 31-2 31-1-2 1 3-10 0-33v-190c-1-38-2-75 0-108-1-31 2-61 0-82 1-18-3-33 0-33-2-2-10 9-23 19-13 13-28 30-50 50-20 19-44 46-68 70-22 26-50 53-76 81-27 27-51 54-75 81l-65 71c-18 22-35 40-46 52-8 11-16 22-18 22zm342-75c0 1-16 2-40 1l-75 1c-23 0-40-1-41-2s10-12 24-27c14-18 33-37 52-57 38-41 77-81 80-82v166z" class="D" style="mix-blend-mode:multiply"/>
  <path d="M2425 422c-2 4 18 29 33 57 17 30 34 50 33 51 2 2-7 12-19 28-8 17-27 36-35 52a93 93 0 0 1-19 28c0 1 20 2 45 0 27 0 60 3 87 1 27 0 47-2 51-1 2-1 3-16 4-35v-74c0-28-3-56-2-74 2-22 7-31-1-33h-131c-26-3-47-4-46 0z" class="E" style="mix-blend-mode:multiply"/>
  <defs>
    <path id="B" d="M1403 380c-2-18 0-36-1-55v-54c-3-18-4-35-3-54l-5-52c-5-17-6-36-8-51-3-17-9-30-20-44-12-14-27-25-44-31-22-5-47-12-83-11-34-2-60 10-80 31-17 19-29 41-38 68a403 403 0 0 0-14 109c0 10 20 7 40 6 21-2 41-6 46-4 6 1 7-27 9-53 6-24 15-54 41-57 19-1 30 3 38 15 12 11 15 28 16 48 4 21 1 49 3 73 1 26 0 55-1 87 0 32 1 57-2 77-1 20-2 35 1 37 2 4 28 2 54 3l51-3c2 0-3-22 0-42v-43z"/>
  </defs>
</svg>