<svg xmlns="http://www.w3.org/2000/svg" width="18" height="18" viewBox="0 0 18 18"><!--!Font Awesome Free 6.5.2 by @fontawesome - https://fontawesome.com License - https://fontawesome.com/license/free Copyright 2024 Fonticons, Inc.--><path d="M17.5 0.2c0.3 0.2 0.5 0.7 0.5 1.0v2.5v11.1c0 1.6-1.6 2.9-3.5 2.9s-3.5-1.3-3.5-2.9 1.6-2.9 3.5-2.9c0.4 0 0.8 0.1 1.1 0.2v-6.8L6.8 7.8v7.8c0 1.6-1.6 2.9-3.5 2.9S0 16.1 0 14.5 1.6 11.6 3.5 11.6c0.4 0 0.8 0.1 1.1 0.2v-7.6V4.7c0-0.5 0.4-1 0.8-1.1l11.6-3.5c0.4-0.1 0.7-0.1 1.0 0.2z"/></svg>
